<mxfile>
    <diagram id="L86JiwvD8wxCOXaOkZGk" name="第 1 页">
        <mxGraphModel dx="1194" dy="548" grid="1" gridSize="10" guides="1" tooltips="1" connect="1" arrows="1" fold="1" page="1" pageScale="1" pageWidth="827" pageHeight="1169" background="#F1FAEE" math="0" shadow="0">
            <root>
                <mxCell id="0"/>
                <mxCell id="1" parent="0"/>
                <mxCell id="gqV2JGUaDiKJHnsyo81N-1" value="" style="aspect=fixed;perimeter=ellipsePerimeter;html=1;align=center;shadow=0;dashed=0;spacingTop=3;image;image=img/lib/active_directory/documents.svg;labelBackgroundColor=#F1FAEE;fillColor=#A8DADC;strokeColor=#457B9D;fontColor=#1D3557;" parent="1" vertex="1">
                    <mxGeometry x="140" y="270" width="99" height="150" as="geometry"/>
                </mxCell>
                <mxCell id="gqV2JGUaDiKJHnsyo81N-2" value="" style="html=1;shadow=0;dashed=0;align=center;verticalAlign=middle;shape=mxgraph.arrows2.arrow;dy=0.6;dx=40;notch=0;fillColor=#A8DADC;strokeColor=#457B9D;fontColor=#1D3557;" parent="1" vertex="1">
                    <mxGeometry x="253" y="320" width="100" height="70" as="geometry"/>
                </mxCell>
                <mxCell id="gqV2JGUaDiKJHnsyo81N-3" value="" style="aspect=fixed;perimeter=ellipsePerimeter;html=1;align=center;shadow=0;dashed=0;spacingTop=3;image;image=img/lib/active_directory/database_cube.svg;labelBackgroundColor=#F1FAEE;fillColor=#A8DADC;strokeColor=#457B9D;fontColor=#1D3557;" parent="1" vertex="1">
                    <mxGeometry x="369" y="305" width="90" height="100" as="geometry"/>
                </mxCell>
                <mxCell id="gqV2JGUaDiKJHnsyo81N-4" value="" style="aspect=fixed;perimeter=ellipsePerimeter;html=1;align=center;shadow=0;dashed=0;spacingTop=3;image;image=img/lib/active_directory/documents.svg;labelBackgroundColor=#F1FAEE;fillColor=#A8DADC;strokeColor=#457B9D;fontColor=#1D3557;" parent="1" vertex="1">
                    <mxGeometry x="580" y="275" width="95.7" height="145" as="geometry"/>
                </mxCell>
                <mxCell id="gqV2JGUaDiKJHnsyo81N-5" value="" style="html=1;shadow=0;dashed=0;align=center;verticalAlign=middle;shape=mxgraph.arrows2.arrow;dy=0.6;dx=40;notch=0;fillColor=#A8DADC;strokeColor=#457B9D;fontColor=#1D3557;" parent="1" vertex="1">
                    <mxGeometry x="459" y="320" width="100" height="70" as="geometry"/>
                </mxCell>
                <mxCell id="gqV2JGUaDiKJHnsyo81N-6" value="对称密钥" style="aspect=fixed;perimeter=ellipsePerimeter;html=1;align=center;shadow=0;dashed=0;spacingTop=3;image;image=img/lib/active_directory/key.svg;fontFamily=Helvetica;fontSize=12;fontColor=#1D3557;fillColor=none;labelBackgroundColor=#F1FAEE;strokeColor=#457B9D;" parent="1" vertex="1">
                    <mxGeometry x="253" y="405" width="60" height="30" as="geometry"/>
                </mxCell>
                <mxCell id="gqV2JGUaDiKJHnsyo81N-9" value="对称密钥" style="aspect=fixed;perimeter=ellipsePerimeter;html=1;align=center;shadow=0;dashed=0;spacingTop=3;image;image=img/lib/active_directory/key.svg;fontFamily=Helvetica;fontSize=12;fontColor=#1D3557;fillColor=none;labelBackgroundColor=#F1FAEE;strokeColor=#457B9D;" parent="1" vertex="1">
                    <mxGeometry x="479" y="405" width="60" height="30" as="geometry"/>
                </mxCell>
                <mxCell id="gqV2JGUaDiKJHnsyo81N-10" value="加密" style="text;html=1;align=center;verticalAlign=middle;resizable=0;points=[];autosize=1;strokeColor=none;fontColor=#1D3557;" parent="1" vertex="1">
                    <mxGeometry x="270" y="300" width="40" height="20" as="geometry"/>
                </mxCell>
                <mxCell id="gqV2JGUaDiKJHnsyo81N-11" value="解密" style="text;html=1;align=center;verticalAlign=middle;resizable=0;points=[];autosize=1;strokeColor=none;fontColor=#1D3557;" parent="1" vertex="1">
                    <mxGeometry x="479" y="300" width="40" height="20" as="geometry"/>
                </mxCell>
                <mxCell id="gqV2JGUaDiKJHnsyo81N-12" value="明文" style="text;html=1;align=center;verticalAlign=middle;resizable=0;points=[];autosize=1;strokeColor=none;fontColor=#1D3557;" parent="1" vertex="1">
                    <mxGeometry x="160" y="415" width="40" height="20" as="geometry"/>
                </mxCell>
                <mxCell id="gqV2JGUaDiKJHnsyo81N-13" value="明文" style="text;html=1;align=center;verticalAlign=middle;resizable=0;points=[];autosize=1;strokeColor=none;fontColor=#1D3557;" parent="1" vertex="1">
                    <mxGeometry x="607.8499999999999" y="415" width="40" height="20" as="geometry"/>
                </mxCell>
                <mxCell id="gqV2JGUaDiKJHnsyo81N-14" value="密文" style="text;html=1;align=center;verticalAlign=middle;resizable=0;points=[];autosize=1;strokeColor=none;fontColor=#1D3557;" parent="1" vertex="1">
                    <mxGeometry x="393.99999999999994" y="405" width="40" height="20" as="geometry"/>
                </mxCell>
                <mxCell id="gqV2JGUaDiKJHnsyo81N-15" value="" style="aspect=fixed;perimeter=ellipsePerimeter;html=1;align=center;shadow=0;dashed=0;spacingTop=3;image;image=img/lib/active_directory/documents.svg;labelBackgroundColor=#F1FAEE;fillColor=#A8DADC;strokeColor=#457B9D;fontColor=#1D3557;" parent="1" vertex="1">
                    <mxGeometry x="120" y="570" width="99" height="150" as="geometry"/>
                </mxCell>
                <mxCell id="gqV2JGUaDiKJHnsyo81N-16" value="" style="html=1;shadow=0;dashed=0;align=center;verticalAlign=middle;shape=mxgraph.arrows2.arrow;dy=0.6;dx=40;notch=0;fillColor=#A8DADC;strokeColor=#457B9D;fontColor=#1D3557;" parent="1" vertex="1">
                    <mxGeometry x="233" y="620" width="100" height="70" as="geometry"/>
                </mxCell>
                <mxCell id="gqV2JGUaDiKJHnsyo81N-17" value="" style="aspect=fixed;perimeter=ellipsePerimeter;html=1;align=center;shadow=0;dashed=0;spacingTop=3;image;image=img/lib/active_directory/database_cube.svg;labelBackgroundColor=#F1FAEE;fillColor=#A8DADC;strokeColor=#457B9D;fontColor=#1D3557;" parent="1" vertex="1">
                    <mxGeometry x="344" y="605" width="90" height="100" as="geometry"/>
                </mxCell>
                <mxCell id="gqV2JGUaDiKJHnsyo81N-18" value="" style="aspect=fixed;perimeter=ellipsePerimeter;html=1;align=center;shadow=0;dashed=0;spacingTop=3;image;image=img/lib/active_directory/documents.svg;labelBackgroundColor=#F1FAEE;fillColor=#A8DADC;strokeColor=#457B9D;fontColor=#1D3557;" parent="1" vertex="1">
                    <mxGeometry x="560" y="575" width="95.7" height="145" as="geometry"/>
                </mxCell>
                <mxCell id="gqV2JGUaDiKJHnsyo81N-19" value="" style="html=1;shadow=0;dashed=0;align=center;verticalAlign=middle;shape=mxgraph.arrows2.arrow;dy=0.6;dx=40;notch=0;fillColor=#A8DADC;strokeColor=#457B9D;fontColor=#1D3557;" parent="1" vertex="1">
                    <mxGeometry x="439" y="620" width="100" height="70" as="geometry"/>
                </mxCell>
                <mxCell id="gqV2JGUaDiKJHnsyo81N-22" value="加密" style="text;html=1;align=center;verticalAlign=middle;resizable=0;points=[];autosize=1;strokeColor=none;fontColor=#1D3557;" parent="1" vertex="1">
                    <mxGeometry x="250" y="600" width="40" height="20" as="geometry"/>
                </mxCell>
                <mxCell id="gqV2JGUaDiKJHnsyo81N-23" value="解密" style="text;html=1;align=center;verticalAlign=middle;resizable=0;points=[];autosize=1;strokeColor=none;fontColor=#1D3557;" parent="1" vertex="1">
                    <mxGeometry x="459" y="600" width="40" height="20" as="geometry"/>
                </mxCell>
                <mxCell id="gqV2JGUaDiKJHnsyo81N-24" value="明文" style="text;html=1;align=center;verticalAlign=middle;resizable=0;points=[];autosize=1;strokeColor=none;fontColor=#1D3557;" parent="1" vertex="1">
                    <mxGeometry x="140" y="715" width="40" height="20" as="geometry"/>
                </mxCell>
                <mxCell id="gqV2JGUaDiKJHnsyo81N-25" value="明文" style="text;html=1;align=center;verticalAlign=middle;resizable=0;points=[];autosize=1;strokeColor=none;fontColor=#1D3557;" parent="1" vertex="1">
                    <mxGeometry x="587.8499999999999" y="715" width="40" height="20" as="geometry"/>
                </mxCell>
                <mxCell id="gqV2JGUaDiKJHnsyo81N-26" value="密文" style="text;html=1;align=center;verticalAlign=middle;resizable=0;points=[];autosize=1;strokeColor=none;fontColor=#1D3557;" parent="1" vertex="1">
                    <mxGeometry x="373.99999999999994" y="705" width="40" height="20" as="geometry"/>
                </mxCell>
                <mxCell id="gqV2JGUaDiKJHnsyo81N-27" value="" style="aspect=fixed;html=1;points=[];align=center;image;fontSize=12;image=img/lib/azure2/other/SSH_Keys.svg;labelBackgroundColor=#F1FAEE;fillColor=#A8DADC;strokeColor=#457B9D;fontColor=#1D3557;" parent="1" vertex="1">
                    <mxGeometry x="233" y="707" width="68" height="60" as="geometry"/>
                </mxCell>
                <mxCell id="gqV2JGUaDiKJHnsyo81N-28" value="" style="aspect=fixed;html=1;points=[];align=center;image;fontSize=12;image=img/lib/azure2/internet_of_things/Time_Series_Insights_Access_Policies.svg;labelBackgroundColor=#F1FAEE;fillColor=#A8DADC;strokeColor=#457B9D;fontColor=#1D3557;" parent="1" vertex="1">
                    <mxGeometry x="457" y="707" width="42" height="68" as="geometry"/>
                </mxCell>
                <mxCell id="gqV2JGUaDiKJHnsyo81N-29" value="公钥" style="text;html=1;align=center;verticalAlign=middle;resizable=0;points=[];autosize=1;strokeColor=none;fontColor=#1D3557;" parent="1" vertex="1">
                    <mxGeometry x="240" y="790" width="40" height="20" as="geometry"/>
                </mxCell>
                <mxCell id="gqV2JGUaDiKJHnsyo81N-30" value="私钥" style="text;html=1;align=center;verticalAlign=middle;resizable=0;points=[];autosize=1;strokeColor=none;fontColor=#1D3557;" parent="1" vertex="1">
                    <mxGeometry x="457" y="790" width="40" height="20" as="geometry"/>
                </mxCell>
                <mxCell id="gqV2JGUaDiKJHnsyo81N-31" value="client" style="rounded=0;whiteSpace=wrap;html=1;fillColor=#A8DADC;strokeColor=#457B9D;fontColor=#1D3557;" parent="1" vertex="1">
                    <mxGeometry x="160" y="1000" width="40" height="400" as="geometry"/>
                </mxCell>
                <mxCell id="gqV2JGUaDiKJHnsyo81N-32" value="server" style="rounded=0;whiteSpace=wrap;html=1;fillColor=#A8DADC;strokeColor=#457B9D;fontColor=#1D3557;" parent="1" vertex="1">
                    <mxGeometry x="519" y="1000" width="41" height="400" as="geometry"/>
                </mxCell>
                <mxCell id="gqV2JGUaDiKJHnsyo81N-33" value="" style="aspect=fixed;html=1;points=[];align=center;image;fontSize=12;image=img/lib/azure2/preview/Azure_Workbooks.svg;labelBackgroundColor=#F1FAEE;fillColor=#A8DADC;strokeColor=#457B9D;fontColor=#1D3557;" parent="1" vertex="1">
                    <mxGeometry x="326" y="1150" width="68" height="68" as="geometry"/>
                </mxCell>
                <mxCell id="gqV2JGUaDiKJHnsyo81N-34" value="" style="endArrow=classic;html=1;exitX=1;exitY=0.25;exitDx=0;exitDy=0;entryX=0;entryY=0.25;entryDx=0;entryDy=0;labelBackgroundColor=#F1FAEE;strokeColor=#457B9D;fontColor=#1D3557;" parent="1" source="gqV2JGUaDiKJHnsyo81N-31" target="gqV2JGUaDiKJHnsyo81N-32" edge="1">
                    <mxGeometry width="50" height="50" relative="1" as="geometry">
                        <mxPoint x="390" y="1280" as="sourcePoint"/>
                        <mxPoint x="440" y="1230" as="targetPoint"/>
                    </mxGeometry>
                </mxCell>
                <mxCell id="gqV2JGUaDiKJHnsyo81N-35" value="" style="endArrow=classic;html=1;exitX=1;exitY=0.25;exitDx=0;exitDy=0;entryX=0;entryY=0.25;entryDx=0;entryDy=0;labelBackgroundColor=#F1FAEE;strokeColor=#457B9D;fontColor=#1D3557;" parent="1" edge="1">
                    <mxGeometry width="50" height="50" relative="1" as="geometry">
                        <mxPoint x="519" y="1270" as="sourcePoint"/>
                        <mxPoint x="200" y="1270" as="targetPoint"/>
                    </mxGeometry>
                </mxCell>
                <mxCell id="gqV2JGUaDiKJHnsyo81N-36" value="黑客" style="text;html=1;align=center;verticalAlign=middle;resizable=0;points=[];autosize=1;strokeColor=none;fontColor=#1D3557;" parent="1" vertex="1">
                    <mxGeometry x="338" y="1120" width="40" height="20" as="geometry"/>
                </mxCell>
                <mxCell id="gqV2JGUaDiKJHnsyo81N-37" value="client" style="rounded=0;whiteSpace=wrap;html=1;fillColor=#A8DADC;strokeColor=#457B9D;fontColor=#1D3557;" parent="1" vertex="1">
                    <mxGeometry x="160" y="1530" width="40" height="400" as="geometry"/>
                </mxCell>
                <mxCell id="gqV2JGUaDiKJHnsyo81N-38" value="server" style="rounded=0;whiteSpace=wrap;html=1;fillColor=#A8DADC;strokeColor=#457B9D;fontColor=#1D3557;" parent="1" vertex="1">
                    <mxGeometry x="519" y="1530" width="41" height="400" as="geometry"/>
                </mxCell>
                <mxCell id="gqV2JGUaDiKJHnsyo81N-40" value="" style="endArrow=classic;html=1;exitX=1;exitY=0.25;exitDx=0;exitDy=0;entryX=0;entryY=0.25;entryDx=0;entryDy=0;labelBackgroundColor=#F1FAEE;strokeColor=#457B9D;fontColor=#1D3557;" parent="1" source="gqV2JGUaDiKJHnsyo81N-37" target="gqV2JGUaDiKJHnsyo81N-38" edge="1">
                    <mxGeometry width="50" height="50" relative="1" as="geometry">
                        <mxPoint x="390" y="1810" as="sourcePoint"/>
                        <mxPoint x="440" y="1760" as="targetPoint"/>
                        <Array as="points">
                            <mxPoint x="430" y="1630"/>
                        </Array>
                    </mxGeometry>
                </mxCell>
                <mxCell id="gqV2JGUaDiKJHnsyo81N-41" value="" style="endArrow=classic;html=1;exitX=1;exitY=0.25;exitDx=0;exitDy=0;entryX=0;entryY=0.25;entryDx=0;entryDy=0;labelBackgroundColor=#F1FAEE;strokeColor=#457B9D;fontColor=#1D3557;" parent="1" edge="1">
                    <mxGeometry width="50" height="50" relative="1" as="geometry">
                        <mxPoint x="519" y="1800" as="sourcePoint"/>
                        <mxPoint x="200" y="1800" as="targetPoint"/>
                    </mxGeometry>
                </mxCell>
                <mxCell id="gqV2JGUaDiKJHnsyo81N-43" value="请求server获取公钥 pk" style="text;html=1;align=center;verticalAlign=middle;resizable=0;points=[];autosize=1;strokeColor=none;fontColor=#1D3557;" parent="1" vertex="1">
                    <mxGeometry x="260" y="1600" width="140" height="20" as="geometry"/>
                </mxCell>
                <mxCell id="gqV2JGUaDiKJHnsyo81N-44" value="server 保存 public key 公钥&lt;br&gt;和 private key 私钥" style="text;html=1;align=center;verticalAlign=middle;resizable=0;points=[];autosize=1;strokeColor=none;fontColor=#1D3557;" parent="1" vertex="1">
                    <mxGeometry x="559" y="1570" width="160" height="30" as="geometry"/>
                </mxCell>
            </root>
        </mxGraphModel>
    </diagram>
</mxfile>